<svg width="70" height="80" viewBox="0 0 70 80" fill="none" xmlns="http://www.w3.org/2000/svg">
<path d="M61.5054 0.769287H8.49443C7.42677 0.771682 6.37004 0.984395 5.38461 1.39528C4.39918 1.80616 3.50435 2.40716 2.75123 3.16395C1.99812 3.92073 1.40148 4.81848 0.995399 5.8059C0.589318 6.79332 0.381749 7.85107 0.384549 8.91873V62.4044C0.381749 63.4721 0.589318 64.5298 0.995399 65.5172C1.40148 66.5047 1.99812 67.4024 2.75123 68.1592C3.50435 68.916 4.39918 69.517 5.38461 69.9278C6.37004 70.3387 7.42677 70.5514 8.49443 70.5538H53.3559L51.2592 63.2352L56.323 67.9429L61.1098 72.3736L69.6153 79.8901V8.91873C69.6181 7.85107 69.4105 6.79332 69.0044 5.8059C68.5983 4.81848 68.0017 3.92073 67.2486 3.16395C66.4955 2.40716 65.6006 1.80616 64.6152 1.39528C63.6298 0.984395 62.573 0.771682 61.5054 0.769287ZM46.2351 52.4352C46.2351 52.4352 44.8109 50.7341 43.6241 49.2308C46.4916 48.5556 49.028 46.8881 50.7845 44.5231C49.361 45.4704 47.8348 46.2534 46.2351 46.8572C44.3947 47.6427 42.4699 48.2135 40.4988 48.5583C37.1106 49.182 33.6359 49.1686 30.2527 48.5187C28.2664 48.1301 26.3199 47.5607 24.4373 46.8176C23.4449 46.436 22.48 45.9866 21.5494 45.4725C21.4307 45.3934 21.312 45.3539 21.1933 45.2747C21.1338 45.2451 21.0802 45.2049 21.0351 45.1561C20.6556 44.9493 20.2859 44.7248 19.9274 44.4835C21.6204 46.799 24.0692 48.4502 26.8505 49.1517C25.6637 50.655 24.1999 52.4352 24.1999 52.4352C21.8499 52.4985 19.5204 51.9832 17.4164 50.9346C15.3124 49.8861 13.4983 48.3364 12.134 46.422C12.2624 38.402 14.2103 30.5158 17.8307 23.3583C21.0166 20.8559 24.9009 19.4045 28.9472 19.2044L29.3428 19.6792C25.536 20.6212 21.9836 22.3907 18.9384 24.8616C18.9384 24.8616 19.8087 24.3869 21.2724 23.7143C24.1161 22.4163 27.1468 21.5751 30.2527 21.222C30.4741 21.1762 30.6991 21.1497 30.9252 21.1429C33.5762 20.7975 36.2591 20.7709 38.9164 21.0638C43.0953 21.541 47.1405 22.8312 50.8241 24.8616C47.9332 22.5084 44.5757 20.796 40.9735 19.8374L41.5274 19.2044C45.5736 19.4045 49.4579 20.8559 52.6439 23.3583C56.2642 30.5158 58.2121 38.402 58.3406 46.422C56.9652 48.3345 55.1434 49.882 53.0336 50.93C50.9239 51.978 48.59 52.4947 46.2351 52.4352Z" fill="white"/>
</svg>
